<?xml version="1.0" standalone="no"?>
<!DOCTYPE svg PUBLIC "-//W3C//DTD SVG 20010904//EN"
 "http://www.w3.org/TR/2001/REC-SVG-20010904/DTD/svg10.dtd">
<svg version="1.0" xmlns="http://www.w3.org/2000/svg"
 width="256.000000pt" height="256.000000pt" viewBox="0 0 256.000000 256.000000"
 preserveAspectRatio="xMidYMid meet">
<metadata>
Created by potrace 1.14, written by Peter Selinger 2001-2017
</metadata>
<g transform="translate(0.000000,256.000000) scale(0.100000,-0.100000)"
fill="#000000" stroke="none">
<path d="M1170 2537 c-30 -13 -115 -58 -187 -100 -73 -42 -137 -77 -142 -77
-5 0 -11 -4 -13 -8 -1 -5 -28 -22 -58 -39 -30 -17 -83 -47 -117 -67 -129 -74
-189 -109 -223 -128 -193 -110 -236 -146 -273 -225 -22 -48 -22 -51 -22 -613
0 -552 0 -566 21 -610 32 -69 99 -129 224 -200 62 -36 134 -77 159 -91 25 -14
144 -83 264 -152 397 -231 378 -222 476 -222 91 0 104 5 291 113 80 47 159 93
177 103 185 105 514 296 538 312 45 30 94 87 118 137 22 44 22 54 24 600 2
527 1 558 -17 605 -23 59 -76 120 -142 164 -26 17 -49 31 -51 31 -2 0 -67 37
-143 81 -423 248 -663 384 -699 394 -68 20 -144 17 -205 -8z"/>
</g>
</svg>
